<svg width="200" height="30" viewBox="0 0 200 30" fill="none" xmlns="http://www.w3.org/2000/svg">
<g clip-path="url(#clip0_212_595)">
<path d="M41.0224 17.3354C39.1999 19.9985 36.529 21.8976 33.5045 22.7716C32.5677 24.0147 31.4581 25.1342 30.1855 26.1181C28.8952 27.1158 27.4694 27.9524 25.9316 28.6201C27.1493 28.8028 28.4062 28.8951 29.6906 28.8951C36.0773 28.8951 42.0417 25.7508 45.6455 20.4836L41.0224 17.3354Z" fill="#0027FF"/>
<path d="M23.7753 0.0353505C23.5652 0.0196392 23.355 0.00785568 23.1429 0.00392784C23.0349 0 22.9289 0 22.8208 0C15.9609 0 10.3813 5.56771 10.3813 12.412L10.3853 12.5632V12.575C10.5129 15.7781 11.4222 18.6553 13.0523 21.0886C13.991 21.3242 14.9651 21.446 15.9569 21.446C17.5104 21.446 19.1012 21.2575 20.5957 20.8391C20.3758 20.6919 20.1617 20.5367 19.9555 20.3776C17.4593 18.4353 16.1219 15.7447 15.9805 12.3786C15.9805 12.3216 15.9825 12.2666 15.9844 12.2116C15.9844 12.1547 15.9864 12.0958 15.9903 12.0388C15.9942 11.9799 15.9982 11.923 16.0041 11.864C16.008 11.8071 16.0119 11.7501 16.0178 11.6932C16.0237 11.6362 16.0316 11.5793 16.0394 11.5223C16.0473 11.4654 16.0532 11.4084 16.063 11.3534C16.0708 11.2965 16.0826 11.2415 16.0924 11.1865C16.1023 11.1315 16.1121 11.0745 16.1239 11.0196C16.1356 10.9646 16.1494 10.9096 16.1612 10.8546C16.1749 10.7996 16.1867 10.7446 16.2005 10.6896C16.2142 10.6366 16.2299 10.5836 16.2456 10.5305C16.2613 10.4755 16.277 10.4206 16.2928 10.3675C16.3085 10.3145 16.3281 10.2634 16.3458 10.2124C16.3635 10.1594 16.3811 10.1044 16.4008 10.0513C16.4204 10.0003 16.4401 9.95118 16.4617 9.90012C16.4833 9.84709 16.5029 9.79406 16.5245 9.743C16.5461 9.6939 16.5697 9.64481 16.5913 9.59571C16.6148 9.54465 16.6384 9.49162 16.662 9.44056C16.6855 9.39342 16.7111 9.34629 16.7346 9.29916C16.7602 9.24809 16.7857 9.19703 16.8132 9.14794C16.8387 9.1008 16.8662 9.05563 16.8937 9.01046C16.9212 8.96136 16.9487 8.91226 16.9782 8.86317C17.0057 8.818 17.0351 8.77479 17.0646 8.72962C17.096 8.68249 17.1255 8.63339 17.1569 8.58625C17.1863 8.54305 17.2178 8.49984 17.2492 8.4586C17.2826 8.41147 17.314 8.3663 17.3493 8.31916C17.3808 8.27792 17.4142 8.23668 17.4475 8.19543C17.4829 8.15026 17.5163 8.10509 17.5536 8.06189C17.587 8.02261 17.6223 7.98333 17.6557 7.94405C17.693 7.90085 17.7304 7.85764 17.7677 7.8164C17.803 7.77712 17.8403 7.74177 17.8757 7.70445C17.915 7.66321 17.9542 7.62197 17.9935 7.58073C18.0308 7.54341 18.0681 7.50806 18.1074 7.47271C18.1487 7.43343 18.1899 7.39416 18.2312 7.35488C18.2704 7.31953 18.3097 7.28614 18.351 7.25275C18.3942 7.21544 18.4354 7.17812 18.4806 7.14081C18.5218 7.10742 18.565 7.07404 18.6063 7.04261C18.6495 7.00726 18.6946 6.97191 18.7378 6.93853C18.7811 6.9071 18.8243 6.87765 18.8675 6.84622C18.9126 6.81284 18.9598 6.77945 19.0049 6.74803C19.0501 6.71857 19.0953 6.69107 19.1404 6.66161C19.1876 6.63215 19.2347 6.60073 19.2819 6.57127C19.329 6.54378 19.3761 6.51825 19.4233 6.49075C19.4724 6.46326 19.5195 6.4338 19.5686 6.40827C19.6157 6.38274 19.6648 6.35917 19.712 6.33364C19.761 6.30811 19.8121 6.28061 19.8632 6.25705C19.9123 6.23348 19.9633 6.21188 20.0144 6.18831C20.0655 6.16474 20.1146 6.14117 20.1656 6.11957C20.2167 6.09797 20.2697 6.07833 20.3227 6.05869C20.3738 6.03905 20.4249 6.01745 20.4759 5.99781C20.5289 5.97817 20.5839 5.96049 20.637 5.94282C20.688 5.92514 20.741 5.90747 20.7921 5.88979C20.8471 5.87212 20.906 5.85837 20.961 5.8407C21.0121 5.82695 21.0631 5.81124 21.1162 5.79749C21.1751 5.78178 21.236 5.76999 21.2949 5.75625C21.3459 5.74446 21.395 5.73268 21.4461 5.7209C21.507 5.70911 21.5698 5.69929 21.6327 5.68751C21.6818 5.67965 21.7328 5.66787 21.7819 5.66001C21.8487 5.6502 21.9155 5.64234 21.9822 5.63448C22.0294 5.62859 22.0765 5.62074 22.1236 5.61681C22.1983 5.60895 22.2729 5.60503 22.3495 5.59913C22.3907 5.59717 22.43 5.59128 22.4713 5.58931C22.5871 5.58342 22.705 5.57949 22.8228 5.57949C22.9406 5.57949 23.0565 5.58342 23.1724 5.58931C23.2136 5.59128 23.2549 5.59521 23.2961 5.59913C23.3707 5.60503 23.4434 5.60895 23.518 5.61681C23.5691 5.6227 23.6182 5.63056 23.6693 5.63645C23.7321 5.6443 23.7949 5.6502 23.8578 5.66001C23.9108 5.66787 23.9638 5.67965 24.0188 5.68751C24.0778 5.69733 24.1367 5.70715 24.1936 5.71893C24.2506 5.73072 24.3056 5.74446 24.3625 5.75821C24.4155 5.76999 24.4705 5.78178 24.5236 5.79553C24.5844 5.81124 24.6434 5.82891 24.7042 5.84659C24.7514 5.86033 24.8005 5.87212 24.8476 5.88783C24.9105 5.90747 24.9733 5.92907 25.0361 5.95067C25.0794 5.96442 25.1226 5.97817 25.1638 5.99388C25.2286 6.01745 25.2934 6.04298 25.3563 6.06851C25.3955 6.08422 25.4329 6.09797 25.4721 6.11368C25.5389 6.14117 25.6057 6.1726 25.6725 6.20402C25.7058 6.21973 25.7412 6.23348 25.7746 6.24919C25.8433 6.28258 25.9121 6.31793 25.9808 6.35328C26.0103 6.36899 26.0397 6.38274 26.0692 6.39845C26.1399 6.43773 26.2106 6.47701 26.2793 6.51825C26.3048 6.53199 26.3284 6.54574 26.3539 6.56145C26.4266 6.60466 26.4973 6.65179 26.568 6.69696C26.5876 6.71071 26.6092 6.7225 26.6289 6.73624C26.7016 6.78534 26.7742 6.8364 26.8449 6.88943C26.8606 6.90121 26.8783 6.91299 26.894 6.92478C26.9686 6.97977 27.0413 7.03672 27.112 7.09368C27.1258 7.1035 27.1375 7.11331 27.1513 7.1251C27.2259 7.18598 27.2986 7.24883 27.3713 7.31167C27.3811 7.31953 27.3889 7.32738 27.3987 7.33524C27.4734 7.40201 27.5441 7.47075 27.6167 7.53949C27.6226 7.54538 27.6305 7.55127 27.6364 7.55716C27.709 7.62983 27.7817 7.70445 27.8505 7.77908C27.8544 7.78301 27.8583 7.78694 27.8603 7.79087C27.9329 7.86942 28.0017 7.94798 28.0704 8.03047L28.0743 8.03636L28.3827 8.4311C27.4832 5.63841 25.643 2.30171 23.7753 0.0333866V0.0353505Z" fill="#0027FF"/>
<path d="M23.8579 5.66199C23.911 5.66984 23.964 5.68162 24.019 5.68948C24.0779 5.6993 24.1368 5.70912 24.1938 5.7209C24.2507 5.73269 24.3057 5.74643 24.3627 5.76018C24.4157 5.77197 24.4707 5.78375 24.5237 5.7975C24.5846 5.81321 24.6435 5.83088 24.7044 5.84856C24.7515 5.86231 24.8006 5.87409 24.8478 5.8898C24.9106 5.90944 24.9734 5.93104 25.0363 5.95265C25.0795 5.96639 25.1227 5.98014 25.1639 5.99585C25.2288 6.01942 25.2936 6.04495 25.3564 6.07048C25.3957 6.08619 25.433 6.09994 25.4723 6.11565C25.5391 6.14315 25.6058 6.17457 25.6726 6.20599C25.706 6.2217 25.7413 6.23545 25.7747 6.25116C25.8435 6.28455 25.9122 6.3199 25.9809 6.35525C26.0104 6.37096 26.0399 6.38471 26.0693 6.40042C26.14 6.4397 26.2107 6.47898 26.2795 6.52022C26.305 6.53397 26.3286 6.54771 26.3541 6.56342C26.4268 6.60663 26.4975 6.65377 26.5682 6.69894C26.5878 6.71268 26.6094 6.72447 26.629 6.73821C26.7017 6.78731 26.7744 6.83837 26.8451 6.8914C26.8608 6.90318 26.8785 6.91497 26.8942 6.92675C26.9688 6.98174 27.0415 7.03869 27.1122 7.09565C27.1259 7.10547 27.1377 7.11529 27.1514 7.12707C27.2261 7.18795 27.2987 7.2508 27.3714 7.31364C27.3812 7.3215 27.3891 7.32935 27.3989 7.33721C27.4735 7.40398 27.5442 7.47272 27.6169 7.54146C27.6228 7.54735 27.6306 7.55324 27.6365 7.55913C27.7092 7.6318 27.7819 7.70643 27.8506 7.78106C27.8545 7.78498 27.8585 7.78891 27.8604 7.79284C27.9331 7.8714 28.0018 7.94995 28.0706 8.03244L28.0745 8.03833L28.3828 8.43308C27.4833 5.64038 25.6431 2.30368 23.7755 0.0353506C23.5653 0.0196392 23.3552 0.00785569 23.1431 0.00392784C23.0351 0 22.929 0 22.821 0C19.0954 0 15.745 1.6438 13.4629 4.24207C13.4629 4.24207 14.7885 3.78448 16.9744 4.04568C20.6823 4.4856 23.8599 5.66199 23.8599 5.66199H23.8579Z" fill="#0000C8"/>
<path d="M27.3947 7.3372C27.4694 7.40398 27.5401 7.47272 27.6127 7.54145C27.6186 7.54734 27.6265 7.55324 27.6324 7.55913C27.705 7.63179 27.7777 7.70642 27.8464 7.78105C27.8504 7.78498 27.8543 7.78891 27.8563 7.79283C27.9289 7.87139 27.9977 7.94995 28.0664 8.03243L28.0703 8.03832L28.3315 8.37415C29.1505 9.48573 29.6434 10.8507 29.6611 12.3275C29.6611 12.355 29.6631 12.3825 29.6631 12.412V12.4257C29.4883 15.7389 28.145 18.3882 25.6665 20.303C23.2352 22.1825 19.7845 23.2175 15.9529 23.2175C11.4182 23.2175 7.18206 20.9825 4.62111 17.2413L0 20.3894C3.60576 25.6566 9.57019 28.8009 15.9549 28.8009C21.0964 28.8009 25.641 27.3888 29.0975 24.7179C32.9016 21.7779 35.0324 17.581 35.2622 12.5828L35.2681 12.4591L35.2642 12.3472C35.2308 5.95853 30.3367 0.697192 24.0895 0.0628454C23.9854 0.0530258 23.8813 0.0432062 23.7752 0.0353506C23.5651 0.0196392 23.3549 0.00785568 23.1428 0.00392784C23.0368 0.00196392 22.9307 0 22.8227 0C22.0372 0 21.2693 0.0726651 20.5249 0.212103C19.4664 0.410459 18.453 0.742362 17.5064 1.19014C17.5064 1.19014 17.7303 1.09194 18.0799 1.18228C21.3773 2.03658 24.3605 4.04371 27.379 7.31364L27.3947 7.33524V7.3372Z" fill="#0027FF"/>
<path d="M62.1169 29.2251C55.0055 29.2251 49.479 23.7909 49.479 17.0762C49.479 10.3616 55.0035 4.98828 62.1169 4.98828C65.4437 4.98828 68.588 6.27072 70.7247 8.1934L67.2447 12.0702C65.9013 10.7269 64.071 9.96486 62.1169 9.96486C58.0574 9.96486 54.9426 13.1386 54.9426 17.0762C54.9426 21.0139 58.0555 24.2485 62.1169 24.2485C64.8938 24.2485 67.1229 22.3867 67.8869 19.8827H62.27L64.071 15.5169H73.6549V17.0428C73.6549 23.8812 68.588 29.2231 62.1169 29.2231V29.2251Z" fill="#056CF2"/>
<path d="M80.6464 8.74352H75.5186V4.68213H80.6464V8.74156V8.74352ZM80.5855 28.4927H75.55V10.9706H80.5855V28.4908V28.4927Z" fill="#056CF2"/>
<path d="M95.144 28.4928H89.0381L81.8345 10.9727H87.4808L92.151 23.3355L97.0038 10.9727H102.285L95.142 28.4928H95.144Z" fill="#056CF2"/>
<path d="M112.362 29.3469C105.708 29.3469 101.709 25.2875 101.709 19.7316C101.709 14.1756 105.708 10.1162 111.447 10.1162C116.849 10.1162 120.94 14.1756 120.94 19.761V21.0729H107.083C107.511 23.8204 109.341 25.2855 112.425 25.2855C114.929 25.2855 116.637 24.4312 117.981 23.2411L120.818 26.2635C118.896 28.0036 116.209 29.3469 112.364 29.3469H112.362ZM107.234 17.6871H115.537C114.988 15.519 113.554 14.2385 111.386 14.2385C109.218 14.2385 107.784 15.5209 107.234 17.6871Z" fill="#056CF2"/>
<path d="M128.327 22.0512V28.4909H122.893V5.72119H129.578C134.492 5.72119 139.223 7.46123 139.223 13.7792C139.223 19.6709 133.973 22.0512 129.485 22.0512H128.325H128.327ZM128.327 10.5426V17.3181H129.578C132.143 17.3181 133.79 16.0357 133.79 13.7772C133.79 11.6719 132.447 10.5406 129.578 10.5406H128.327V10.5426Z" fill="#056CF2"/>
<path d="M152.838 26.3561C151.77 27.6385 149.786 28.9504 147.1 28.9504C143.498 28.9504 140.843 26.4778 140.843 22.4479V10.9707H145.88V20.9219C145.88 23.5162 147.345 24.4943 149.178 24.4943C150.796 24.4943 152.597 23.2727 152.597 21.2283V10.9707H157.634V28.4908H152.842V26.3541L152.838 26.3561Z" fill="#056CF2"/>
<path d="M165.17 28.4927H160.132V4.68213H165.17V28.4908V28.4927Z" fill="#056CF2"/>
<path d="M177.869 11.0627V15.3048C176.435 14.6331 175.029 14.3896 174.235 14.3896C173.075 14.3896 172.434 14.8178 172.434 15.4875C172.434 16.0059 173.075 16.5558 174.51 17.5024C178.662 20.25 179.67 21.8977 179.67 23.8518C179.67 26.8428 177.228 29.0405 172.894 29.0719C171.215 29.0719 169.11 28.5829 167.644 27.9721V23.73C169.477 24.6158 171.185 25.0125 172.193 25.0125C173.689 25.0125 174.269 24.4331 174.269 23.7614C174.269 23.243 173.811 22.6322 171.46 21.1062C167.798 18.6651 167.126 17.3218 167.126 15.2754C167.126 12.8028 169.019 10.3302 173.78 10.3616C175.367 10.3616 176.771 10.666 177.871 11.0647L177.869 11.0627Z" fill="#056CF2"/>
<path d="M191.421 29.3469C184.768 29.3469 180.769 25.2875 180.769 19.7316C180.769 14.1756 184.768 10.1162 190.506 10.1162C195.909 10.1162 200 14.1756 200 19.761V21.0729H186.142C186.57 23.8204 188.401 25.2855 191.484 25.2855C193.988 25.2855 195.697 24.4312 197.04 23.2411L199.878 26.2635C197.955 28.0036 195.269 29.3469 191.423 29.3469H191.421ZM186.294 17.6871H194.597C194.047 15.519 192.613 14.2385 190.445 14.2385C188.277 14.2385 186.843 15.5209 186.294 17.6871Z" fill="#056CF2"/>
<path d="M41.0322 17.3569C39.2097 20.02 36.5368 21.9191 33.5124 22.7931C32.5756 24.0362 31.464 25.1576 30.1914 26.1396C28.9011 27.1373 27.4753 27.9739 25.9355 28.6436C27.1532 28.8263 28.4121 28.9186 29.6945 28.9186C36.0812 28.9186 42.0476 25.7724 45.6533 20.5051L41.0303 17.355L41.0322 17.3569Z" fill="#056CF2"/>
<path d="M23.7812 0.0529292C23.571 0.0372178 23.3609 0.0254343 23.1468 0.0215065C23.0408 0.0195426 22.9347 0.0175786 22.8267 0.0175786C15.9648 0.0156147 10.3833 5.58529 10.3833 12.4315L10.3872 12.5827V12.5945C10.5149 15.7996 11.4242 18.6768 13.0542 21.1101C13.993 21.3457 14.9691 21.4675 15.9589 21.4675C17.5123 21.4675 19.1031 21.279 20.5977 20.8607C20.3777 20.7134 20.1636 20.5582 19.9574 20.3972C17.4593 18.4549 16.1219 15.7623 15.9824 12.3962C15.9824 12.3392 15.9844 12.2842 15.9864 12.2292C15.9864 12.1723 15.9883 12.1134 15.9923 12.0564C15.9962 11.9975 16.0001 11.9405 16.006 11.8816C16.0099 11.8247 16.0139 11.7677 16.0198 11.7108C16.0257 11.6538 16.0335 11.5968 16.0414 11.5399C16.0492 11.4829 16.0551 11.426 16.0649 11.371C16.0728 11.314 16.0846 11.2591 16.0944 11.2041C16.1042 11.1491 16.114 11.0921 16.1258 11.0371C16.1376 10.9821 16.1513 10.9271 16.1631 10.8722C16.1769 10.8172 16.1887 10.7622 16.2024 10.7072C16.2162 10.6542 16.2319 10.6011 16.2476 10.5461C16.2633 10.4912 16.279 10.4362 16.2947 10.3831C16.3104 10.3301 16.3301 10.2791 16.3477 10.228C16.3654 10.175 16.3831 10.12 16.4027 10.067C16.4224 10.0159 16.442 9.96679 16.4636 9.91573C16.4852 9.86271 16.5048 9.80968 16.5265 9.75862C16.5481 9.70952 16.5716 9.66042 16.5932 9.61132C16.6168 9.56026 16.6404 9.50724 16.6639 9.45617C16.6875 9.40904 16.713 9.36191 16.7366 9.31477C16.7621 9.26371 16.7877 9.21265 16.8152 9.16355C16.8407 9.11642 16.8682 9.07125 16.8957 9.02608C16.9232 8.97698 16.9507 8.92788 16.9821 8.87878C17.0096 8.83361 17.039 8.79041 17.0685 8.74524C17.0999 8.6981 17.1294 8.649 17.1608 8.60187C17.1903 8.55866 17.2217 8.51546 17.2531 8.47421C17.2865 8.42708 17.3179 8.38191 17.3533 8.33478C17.3847 8.29353 17.4181 8.25229 17.4515 8.21105C17.4868 8.16588 17.5202 8.12071 17.5575 8.0775C17.5909 8.03822 17.6262 7.99895 17.6596 7.95967C17.697 7.91646 17.7343 7.87326 17.7716 7.83005C17.8069 7.79077 17.8442 7.75542 17.8796 7.71614C17.9189 7.6749 17.9582 7.63366 17.9974 7.59241C18.0347 7.5551 18.0721 7.51975 18.1113 7.4844C18.1526 7.44512 18.1938 7.40584 18.2351 7.36656C18.2743 7.33121 18.3136 7.29783 18.3549 7.26444C18.3981 7.22713 18.4393 7.18981 18.4845 7.1525C18.5257 7.11911 18.5689 7.08572 18.6102 7.0543C18.6534 7.01895 18.6986 6.9836 18.7437 6.95021C18.7869 6.91879 18.8301 6.88933 18.8733 6.85791C18.9185 6.82452 18.9656 6.79114 19.0108 6.75971C19.056 6.73025 19.1012 6.70276 19.1463 6.6733C19.1935 6.64384 19.2406 6.61242 19.2877 6.58296C19.3349 6.55547 19.382 6.52993 19.4291 6.50244C19.4782 6.47495 19.5254 6.44549 19.5745 6.41995C19.6216 6.39442 19.6707 6.37086 19.7178 6.34533C19.7689 6.3198 19.818 6.2923 19.8691 6.26873C19.9181 6.24517 19.9692 6.22356 20.0203 6.2C20.0713 6.17643 20.1204 6.15286 20.1715 6.13126C20.2226 6.10966 20.2756 6.09002 20.3286 6.07038C20.3797 6.05074 20.4307 6.02913 20.4818 6.0095C20.5348 5.98986 20.5898 5.97218 20.6428 5.95451C20.6939 5.93683 20.7469 5.91916 20.798 5.90148C20.8549 5.8838 20.9119 5.87006 20.9669 5.85238C21.0179 5.83863 21.069 5.82292 21.122 5.80918C21.181 5.79346 21.2418 5.78168 21.3008 5.76793C21.3518 5.75615 21.4009 5.74437 21.452 5.73258C21.5129 5.7208 21.5757 5.71098 21.6385 5.6992C21.6876 5.69134 21.7387 5.67956 21.7878 5.6717C21.8546 5.66188 21.9214 5.65403 21.9881 5.64617C22.0353 5.64028 22.0824 5.63242 22.1295 5.6285C22.2042 5.62064 22.2788 5.61671 22.3554 5.61082C22.3966 5.60886 22.4359 5.60296 22.4771 5.601C22.593 5.59511 22.7108 5.59118 22.8287 5.59118C22.9465 5.59118 23.0624 5.59511 23.1783 5.601C23.2195 5.60296 23.2607 5.60689 23.302 5.61082C23.3766 5.61671 23.4493 5.62064 23.5239 5.6285C23.575 5.63439 23.6241 5.64224 23.6751 5.64813C23.738 5.65599 23.8008 5.66188 23.8637 5.6717C23.9167 5.67956 23.9697 5.69134 24.0247 5.6992C24.0836 5.70902 24.1425 5.71884 24.1995 5.73062C24.2565 5.7424 24.3114 5.75615 24.3684 5.7699C24.4214 5.78168 24.4764 5.79346 24.5294 5.80721C24.5903 5.82292 24.6492 5.8406 24.7101 5.85827C24.7573 5.87202 24.8064 5.8838 24.8535 5.89952C24.9163 5.91916 24.9792 5.94076 25.042 5.96236C25.0852 5.97611 25.1284 5.98986 25.1697 6.00557C25.2345 6.02913 25.2993 6.05467 25.3621 6.08216C25.4014 6.09787 25.4387 6.11162 25.478 6.12733C25.5448 6.15483 25.6116 6.18625 25.6783 6.21767C25.7117 6.23338 25.7471 6.24713 25.7805 6.26284C25.8492 6.29623 25.9179 6.33158 25.9867 6.36693C26.0161 6.38264 26.0456 6.39639 26.075 6.4121C26.1458 6.45138 26.2165 6.49066 26.2852 6.5319C26.3107 6.54565 26.3343 6.55939 26.3598 6.5751C26.4325 6.61831 26.5032 6.66544 26.5739 6.71061C26.5935 6.72436 26.6151 6.73615 26.6348 6.74989C26.7074 6.79899 26.7801 6.85005 26.8528 6.90308C26.8685 6.91486 26.8861 6.92665 26.9019 6.93843C26.9765 6.99342 27.0492 7.05037 27.1199 7.10733C27.1336 7.11715 27.1454 7.12697 27.1591 7.13875C27.2338 7.19963 27.3064 7.26248 27.3791 7.32729C27.3889 7.33514 27.3968 7.343 27.4066 7.35085C27.4812 7.41763 27.5519 7.48636 27.6246 7.5551C27.6305 7.56099 27.6383 7.56688 27.6442 7.57278C27.7169 7.64544 27.7896 7.72007 27.8583 7.7947C27.8622 7.79863 27.8661 7.80255 27.8681 7.80648C27.9408 7.88504 28.0095 7.9636 28.0783 8.04608L28.0822 8.05197L28.3905 8.44868C27.491 5.65599 25.6489 2.31733 23.7831 0.0490013L23.7812 0.0529292Z" fill="url(#paint0_linear_212_595)"/>
<path d="M27.4026 7.35675C27.4773 7.42352 27.548 7.49226 27.6206 7.561C27.6265 7.56689 27.6344 7.57278 27.6403 7.57867C27.7129 7.65134 27.7856 7.72597 27.8543 7.80059C27.8583 7.80452 27.8622 7.80845 27.8642 7.81238C27.9368 7.89093 28.0056 7.96949 28.0743 8.05198L28.0782 8.05787L28.3394 8.3937C29.1584 9.50528 29.6513 10.8702 29.669 12.349C29.669 12.3765 29.671 12.404 29.671 12.4335V12.4472C29.4962 15.7604 28.1509 18.4117 25.6744 20.3265C23.243 22.2059 19.7924 23.2409 15.9569 23.2409C11.4202 23.2409 7.18404 21.006 4.62111 17.2628L0 20.4109C3.60577 25.6801 9.57217 28.8244 15.9589 28.8244C21.1024 28.8244 25.6469 27.4123 29.1054 24.7394C32.9095 21.7975 35.0423 17.6006 35.2701 12.6024L35.276 12.4787L35.2721 12.3667C35.2387 5.97611 30.3426 0.712806 24.0954 0.0804236C23.9913 0.070604 23.8872 0.0607844 23.7812 0.0529287C23.571 0.0372173 23.3609 0.0254338 23.1468 0.021506C23.0408 0.019542 22.9347 0.0175781 22.8267 0.0175781C22.0411 0.0175781 21.2732 0.0902432 20.5289 0.229681C19.4703 0.428037 18.457 0.75994 17.5104 1.20771C17.5104 1.20771 17.7342 1.10952 18.0858 1.19986C21.3852 2.05416 24.3684 4.06325 27.3869 7.33318L27.4026 7.35478V7.35675Z" fill="#056CF2"/>
</g>
<defs>
<linearGradient id="paint0_linear_212_595" x1="14.865" y1="21.768" x2="22.8876" y2="-0.273093" gradientUnits="userSpaceOnUse">
<stop stop-color="#056CF2"/>
<stop offset="0.6" stop-color="#056CF2"/>
<stop offset="0.75" stop-color="#054CDB"/>
<stop offset="1" stop-color="#050DAF"/>
</linearGradient>
<clipPath id="clip0_212_595">
<rect width="200" height="29.3469" fill="white"/>
</clipPath>
</defs>
</svg>
